# xmcd CD database file
#
# Track frame offsets:
#	150
#	12893
#	32115
#	51377
#	72046
#	91531
#	114669
#	133498
#	157511
#	173865
#	191389
#	209297
#	231501
#	248845
#
# Disc length: 3708 seconds
#
# Revision: 4
# Processed by: cddbd v1.5.2PL0 Copyright (c) Steve Scherf et al.
# Submitted via: CDex 1.70beta2
#
DISCID=b70e7a0e
DTITLE=アイドリング！！！ - だいじなもの
DYEAR=2008
DGENRE=JPop
TTITLE0=The Theme Of "Idling"
TTITLE1=百花繚乱アイドリング！！！
TTITLE2=Friend
TTITLE3=モテ期のうた ［Album Mix］
TTITLE4=キミがスキ ［Vox. Change］
TTITLE5=Snow Celebration
TTITLE6=ガンバレ乙女（笑） ［Ultimate Party Mix］
TTITLE7=台場の恋の物語
TTITLE8=恋ゴコロ
TTITLE9=Stay With Me
TTITLE10=Like A Shooting Star
TTITLE11=想いの詩
TTITLE12=ガンバレ乙女（笑）
TTITLE13=だいじなもの
EXTD=YEAR: 2008
EXTT0=
EXTT1=
EXTT2=
EXTT3=
EXTT4=
EXTT5=
EXTT6=
EXTT7=
EXTT8=
EXTT9=
EXTT10=
EXTT11=
EXTT12=
EXTT13=
PLAYORDER=
